<svg width="48" height="48" fill="none" xmlns="http://www.w3.org/2000/svg"><path d="M16.545 32.189l-3.388 7.715 2.162-.894a3.26 3.26 0 014.32 1.926l.73 2.064 3.166-7.389h.93L27.63 43l.73-2.064a3.26 3.26 0 014.32-1.926l2.161.895-3.387-7.716M25.328 5.453l3.149 2.433c.306.236.669.386 1.052.436l3.946.506a2.175 2.175 0 011.88 1.879l.506 3.946c.049.383.2.746.435 1.052l2.433 3.149a2.173 2.173 0 010 2.657l-2.433 3.149a2.173 2.173 0 00-.435 1.051l-.507 3.947a2.173 2.173 0 01-1.879 1.879l-3.946.506c-.383.05-.746.2-1.052.436l-3.149 2.432a2.173 2.173 0 01-2.657 0l-3.148-2.432a2.173 2.173 0 00-1.052-.436l-3.947-.506a2.173 2.173 0 01-1.879-1.88l-.506-3.946c-.05-.383-.2-.746-.436-1.051l-2.432-3.15a2.173 2.173 0 010-2.656l2.432-3.149c.236-.306.387-.669.436-1.052l.506-3.946a2.173 2.173 0 011.88-1.879l3.946-.506c.383-.05.746-.2 1.052-.436l3.148-2.433a2.173 2.173 0 012.657 0zm-.931 8.557l1.554 3.487 3.796.4c.374.04.525.504.246.756l-2.836 2.555.792 3.734a.435.435 0 01-.642.467L24 23.502l-3.307 1.907a.435.435 0 01-.642-.467l.792-3.734-2.836-2.555a.435.435 0 01.246-.755l3.796-.401 1.554-3.487a.435.435 0 01.794 0z" stroke="#FF7800" stroke-width="1.2" stroke-linecap="round" stroke-linejoin="round"/></svg>