<svg width="48" height="48" fill="none" xmlns="http://www.w3.org/2000/svg"><path d="M27.168 16.166c.608.196 1.155 1.35 1.155 1.987 0 1.027-.608 2.207-1.742 2.25-1.058 2.91-3.487 5.403-6.717 5.403-3.212 0-5.748-2.44-6.717-5.402-1.104-.041-1.77-1.239-1.77-2.25 0-.742.258-1.509.845-1.988m14.946 0c-2.695-.56-4.84-1.625-6.434-3.193-1.5-1.494-2.932-2.054-4.299-1.681-1.499.504-2.903 2.129-4.213 4.874m14.946 0c-.145-4.11-3.084-8.403-7.459-8.403-4.024 0-7.053 3.745-7.401 7.59l-.086.813m24.504 4.285c.5.16.95 1.11.95 1.633 0 .845-.5 1.814-1.432 1.85-.457 1.256-1.224 2.417-2.235 3.237m2.717-6.72c-2.215-.46-3.978-1.335-5.289-2.625m5.289 2.625c-.119-3.379-2.535-6.907-6.131-6.907-.218 0-.433.013-.643.039m6.458 26.654h4.356c.923 0 1.772-.773 1.772-1.735.03-1.233-.18-2.866-.659-4.925-.522-2.25-2.349-3.818-5.478-4.705m-23.254-2.525c-3.974 1.067-6.269 2.997-6.884 5.788-.552 2.507-.838 4.492-.801 5.992a2.09 2.09 0 002.1 2.11h24.52c1.123 0 2.157-.94 2.157-2.11.036-1.5-.22-3.487-.802-5.992-.648-2.791-2.946-4.72-6.893-5.788" stroke="#FF7800" stroke-width="1.5" stroke-linecap="round" stroke-linejoin="round"/></svg>