<svg width="48" height="48" fill="none" xmlns="http://www.w3.org/2000/svg"><path d="M33.2 12.6l2.2-2.15M15.8 12.6l-2.25-2.15m14.15 10.9h-3.2m0 0v9.2h-3.65l-3.35-5.9c-.767-1.433-1.15-2.667-1.15-3.7 0-2.167.817-4.05 2.45-5.65 1.567-1.567 3.467-2.35 5.7-2.35s4.133.783 5.7 2.35c1.6 1.6 2.4 3.483 2.4 5.65 0 1.467-.35 2.8-1.05 4l-3.3 5.6m-3.75-9.2h-3.2m3.2-12.2V6M12.15 21.35H9m12.25 12.2h6.45m9.1-12.2h3.15M27.7 36.5c0 .9-.317 1.667-.95 2.3-.633.633-1.383.95-2.25.95-.9 0-1.667-.317-2.3-.95a3.132 3.132 0 01-.95-2.3h6.45z" stroke="#FF7800" stroke-width="1.5" stroke-linecap="round" stroke-linejoin="round"/></svg>