<svg xmlns="http://www.w3.org/2000/svg" width="1600" height="488" fill="none"><path fill="#071D2B" d="M0 0h1600v488H0z"/><mask id="a" maskUnits="userSpaceOnUse" x="0" y="0" width="1600" height="488"><path d="M1600 0H0v488h1600V0z" fill="#FFF"/></mask><g mask="url(#a)"><path opacity=".22" d="M1215.39 567.616c143.1 221.991 53.73 519.384-188.01 625.614L-1423 2270 568.183 480.912c196.441-176.499 504.107-135.286 647.207 86.704z" fill="url(#paint0_linear)"/><path opacity=".22" d="M551.718-172.449C757.065-6.328 765.102 304.147 568.619 480.67L-1423 2270-90.304-52.378C41.174-281.492 346.37-338.57 551.718-172.449z" fill="url(#paint1_linear)"/></g><defs><linearGradient id="paint0_linear" x1="574.5" y1="412" x2="969.05" y2="855.778" gradientUnits="userSpaceOnUse"><stop stop-color="#071D2B" stop-opacity="0"/><stop offset="1" stop-color="#fff" stop-opacity=".48"/></linearGradient><linearGradient id="paint1_linear" x1="-8.5" y1="-52" x2="572.162" y2="505.332" gradientUnits="userSpaceOnUse"><stop stop-color="#071D2B" stop-opacity="0"/><stop offset="1" stop-color="#fff" stop-opacity=".48"/></linearGradient></defs></svg>