<svg width="80" height="80" fill="none" xmlns="http://www.w3.org/2000/svg"><path d="M53.667 35c-4.581-3.167-9.737-4.75-15.467-4.75-7.367 0-13.783 2.617-19.25 7.85-.833 1.2-.9 2.283-.2 3.25l4.45 4.9c1 1 2.167.967 3.5-.1 3.3-2.833 7.133-4.25 11.5-4.25.475 0 .944.017 1.406.05m0 5.647A14.36 14.36 0 0038.2 47.5c-3.367.067-6.267 1.267-8.7 3.6-.5.5-.5 1.133 0 1.9 1.167 1.567 3.717 4.367 7.65 8.4.667.6 1.433.6 2.1 0 .617-.633 1.2-1.236 1.75-1.808M38.2 13c-11.333 0-21.167 4.167-29.5 12.5-.933 1.2-.933 2.367 0 3.5l4.5 4.9c.867.833 1.8.833 2.8 0 6.2-6.2 13.6-9.3 22.2-9.3s16 3.1 22.2 9.3c1 .833 1.933.833 2.8 0l4.5-4.9c.933-1.133.933-2.3 0-3.5C59.367 17.167 49.533 13 38.2 13zM72 51.2c0 2.428-.344 5.136-.851 6.685-1.59 4.912-5.808 9.208-12.656 12.887a2.262 2.262 0 01-1.986 0c-6.848-3.68-11.222-7.91-12.627-12.887-.535-1.895-.898-4.238-.88-6.685.02-2.447 0-5.912 0-5.94 0-2.048 1.259-3.6 3.094-4.074 1.214-.313 9.363-2.73 9.363-2.73 1.517-.5 2.677-.464 4.2 0 0 0 7.453 2.218 9.307 2.73S72 43.183 72 45.26v5.94z" stroke="#FF7800" stroke-width="1.5" stroke-linecap="round" stroke-linejoin="round"/></svg>