<svg width="32" height="32" fill="none" xmlns="http://www.w3.org/2000/svg"><path d="M5.55 13.634c-.013 1.78.247 3.483.63 4.862 1.145 4.109 4.75 6.967 8.392 9a2.929 2.929 0 002.856 0c3.641-2.033 7.247-4.891 8.391-9a18.02 18.02 0 00.631-4.862c-.01-1.415-.008-2.83-.004-4.246a3.176 3.176 0 00-2.265-3.054c-2.273-.678-4.55-1.34-6.827-2.007a4.819 4.819 0 00-2.708 0c-2.276.666-4.554 1.329-6.827 2.007a3.176 3.176 0 00-2.265 3.054c.004 1.415.007 2.83-.004 4.246z" fill="#FFF" stroke="#FFF" stroke-width="1.2" stroke-linecap="round" stroke-linejoin="round"/><path d="M18.277 15.077l2.238-1.644c.1-.076.046-.247-.081-.247h-2.747c-.333 0-.474-.117-.57-.432l-.855-2.65c-.052-.105-.292-.132-.326 0l-.854 2.65c-.114.299-.242.432-.57.432h-2.748c-.144 0-.197.16-.081.247l2.218 1.644c.247.174.322.37.204.657l-.855 2.651c-.025.126.109.252.224.165l2.239-1.644c.263-.17.495-.182.752 0l2.26 1.644c.103.104.249-.047.203-.165l-.855-2.65c-.096-.293-.05-.48.204-.658z" stroke="#FF7800" stroke-width="1.2" stroke-linecap="round" stroke-linejoin="round"/></svg>