<svg width="80" height="80" fill="none" xmlns="http://www.w3.org/2000/svg"><g clip-path="url(#clip0_802_7960)"><path d="M66.436 59.493v-31.72a7 7 0 00-7-7H16.813a7 7 0 00-7 7v31.72m5.425-34.317H61.01M49.234 36.61L36.953 49.28a2 2 0 01-2.889-.017l-6.526-6.898m-21.43 24.28c-2.067 0-3.91-1.808-3.91-3.91h25.879a2 2 0 011.414.585l.058.058a2 2 0 001.414.585H45.23a2 2 0 001.414-.585l.058-.058a2 2 0 011.414-.586h25.879c0 2.102-1.844 3.911-3.911 3.911H6.109zm67.728-49.042l4.956-1.573c.547-.174.561-.944.02-1.137l-4.976-1.777L72.3 8.042c-.173-.568-.977-.568-1.149 0l-1.537 5.074-4.976 1.777c-.541.193-.528.963.02 1.137l4.956 1.573 1.537 5.074c.172.568.976.568 1.149 0l1.537-5.074zm2.745 12.934l-.703 2.743c-.1.391-.651.404-.77.019l-.85-2.762-2.825-.929a.4.4 0 01-.027-.75l2.852-1.172.85-2.761c.119-.386.67-.373.77.018l.703 2.743 2.89 1.172a.4.4 0 01-.028.75l-2.862.93z" stroke="#FF7800" stroke-width="1.5" stroke-linecap="round" stroke-linejoin="round"/></g><defs><clipPath id="clip0_802_7960"><path fill="#fff" d="M0 0h80v80H0z"/></clipPath></defs></svg>