<svg width="32" height="32" fill="none" xmlns="http://www.w3.org/2000/svg"><path d="M7.416 22.025l-2.192 2.178m7.632-1.235l3.079-1.416a59.386 59.386 0 001.987-.952m-5.066 2.368l1.82 4.217a.48.48 0 00.781.149l1.787-1.793a2.4 2.4 0 00.7-1.71l-.022-3.231m-5.066 2.368l-4.064-3.94m1.088 5.337l-.917.897m2.299-11.253a78.004 78.004 0 00-1.008 2.003m1.008-2.003l-1.008 2.003m1.008-2.003l-3.366.023a2.4 2.4 0 00-1.683.706L4.424 16.53a.48.48 0 00.16.784l4.208 1.713m2.47-5.02c1.25-2.598 2.77-5.367 5.375-6.794 2.713-1.485 6.01-2.134 9.098-1.8.34.037.613.3.658.64.408 3.046-.235 6.35-1.724 9.016-1.46 2.613-4.19 4.163-6.747 5.53m-7.668-4.588l-1.462 3.016m2.262-3.816l5.68 5.54m.9-10.178c.978-.983 2.637-1.02 3.623-.025a2.58 2.58 0 01.025 3.582c-.97.973-2.642.984-3.624.026-.96-.967-.948-2.593-.025-3.583z" stroke="#FFF" stroke-width="1.2" stroke-linecap="round" stroke-linejoin="round"/></svg>