<svg width="32" height="32" fill="none" xmlns="http://www.w3.org/2000/svg"><path d="M5.55 13.634c-.013 1.78.247 3.483.63 4.862 1.145 4.109 4.75 6.967 8.392 9a2.929 2.929 0 002.856 0c3.641-2.033 7.247-4.891 8.391-9a18.02 18.02 0 00.631-4.862c-.01-1.415-.008-2.83-.004-4.246a3.176 3.176 0 00-2.265-3.054c-2.273-.678-4.55-1.34-6.827-2.007a4.819 4.819 0 00-2.708 0c-2.276.666-4.554 1.329-6.827 2.007a3.176 3.176 0 00-2.265 3.054c.004 1.415.007 2.83-.004 4.246z" stroke="#FFF" stroke-width="1.2" stroke-linecap="round" stroke-linejoin="round"/></svg>