<svg width="80" height="80" fill="none" xmlns="http://www.w3.org/2000/svg"><path d="M18.608 22.758h-.631a6.4 6.4 0 00-6.4 6.4V61m56.846 0V29.16a6.4 6.4 0 00-6.4-6.4h-.581M36.26 39.67c1.097.644 2.576.914 3.74.914m0 0v-7.262m0 7.262v2.742m0-2.742c1.812 0 3.99-1.387 3.99-3.403 0-2.185-2.34-3.068-3.99-3.86m0 0v-7.21m0 7.21c-1.709-.77-3.989-1.576-3.989-3.808 0-2.008 2.138-3.403 3.99-3.403m0 0v-2.793m0 2.793c1.162.002 2.592.272 3.69.915M73.558 67.5H6.441C4.599 67.374 3.068 65.928 3 64.047v-.102h28.04c.5 0 .98.201 1.33.559v0a1.87 1.87 0 001.332.558h12.596c.5 0 .98-.201 1.331-.558v0a1.865 1.865 0 011.332-.559H77c-.067 1.859-1.626 3.357-3.44 3.555zM58.95 33.119V19.763c0-1.556-.936-2.063-2.294-2.49l-14.41-4.265c-1.719-.514-2.779-.544-4.489 0l-14.41 4.266c-1.381.433-2.245.924-2.245 2.49v13.405c0 10.626 8.892 18.08 17.411 23.05.89.52 1.988.523 2.879.005 8.562-4.983 17.558-12.875 17.558-23.105z" stroke="#FF7800" stroke-width="1.5" stroke-linecap="round" stroke-linejoin="round"/></svg>