<svg width="32" height="32" fill="none" xmlns="http://www.w3.org/2000/svg"><path d="M5.55 13.634c-.013 1.78.247 3.483.63 4.862 1.145 4.109 4.75 6.967 8.392 9a2.929 2.929 0 002.856 0c3.641-2.033 7.247-4.891 8.391-9a18.02 18.02 0 00.631-4.862c-.01-1.415-.008-2.83-.004-4.246a3.176 3.176 0 00-2.265-3.054c-2.273-.678-4.55-1.34-6.827-2.007a4.819 4.819 0 00-2.708 0c-2.276.666-4.554 1.329-6.827 2.007a3.176 3.176 0 00-2.265 3.054c.004 1.415.007 2.83-.004 4.246z" fill="#FFF" stroke="#FFF" stroke-width="1.2" stroke-linecap="round" stroke-linejoin="round"/><path d="M15.288 19.314a.6.6 0 10-.848-.848l.848.848zM12.674 16.7l.424.425-.424-.425zm2.614-1.766a.6.6 0 10-.848-.848l.848.848zm1.424-3.12a.6.6 0 10.848.848l-.848-.848zm2.614 2.615l.425.424-.425-.424zm-2.614 1.765a.6.6 0 00.849.849l-.849-.849zm3.039.082a.6.6 0 00-.849.849l.849-.849zm-4.381 0a.6.6 0 00-.849.849l.849-.849zm-3.12-1.423a.6.6 0 00.848-.849l-.849.849zm2.614-2.615l.424-.424-.424.424zm1.765 2.614a.6.6 0 10.849-.848l-.849.848zm-2.19 3.615a.949.949 0 01-1.341 0l-.849.848c.84.84 2.2.84 3.04 0l-.85-.848zm-1.341 0a.949.949 0 010-1.342l-.849-.849a2.15 2.15 0 000 3.04l.849-.85zm0-1.342l2.19-2.19-.848-.85-2.19 2.191.848.849zm4.462-4.462a.949.949 0 011.342 0l.849-.849c-.84-.84-2.2-.84-3.04 0l.85.848zm1.342 0c.37.37.37.97 0 1.341l.849.849a2.15 2.15 0 000-3.039l-.849.848zm0 1.341l-2.19 2.19.849.849 2.19-2.19-.849-.849zm0 3.12c.37.371.37.972 0 1.343l.849.848a2.15 2.15 0 000-3.039l-.849.849zm0 1.343a.949.949 0 01-1.342 0l-.848.848c.839.84 2.2.84 3.039 0l-.849-.848zm-1.342 0l-2.19-2.19-.849.848 2.19 2.19.85-.848zm-4.462-4.463a.949.949 0 010-1.341l-.849-.849a2.15 2.15 0 000 3.039l.849-.849zm0-1.341a.949.949 0 011.342 0l.848-.849c-.839-.84-2.2-.84-3.039 0l.849.848zm1.342 0l2.19 2.19.848-.85-2.19-2.189-.848.848z" fill="#FF7800"/></svg>